<?xml version="1.0" encoding="utf-8"?>
<svg viewBox="0 0 138.981 91" xmlns="http://www.w3.org/2000/svg">
  <defs>
    <style id="bx-google-fonts">@import url(https://fonts.googleapis.com/css?family=Asap:400,400italic,700,700italic|Chathura:100,300,700,800,400);</style>
  </defs>
  <g transform="matrix(0.241793, 0, 0, 0.241793, 23.118572, -12.507089)">
    <rect x="109.185" y="164.944" width="138.981" height="174.847" style="stroke: rgb(255, 255, 255); stroke-linejoin: round; stroke-width: 10.0309; fill: rgb(82, 29, 102);" rx="11.81" ry="11.81" transform="matrix(0.939692, -0.342021, 0.342021, 0.939692, -111.647733, 41.245816)"/>
    <rect x="125.287" y="62.981" width="138.981" height="174.847" style="stroke: rgb(255, 255, 255); stroke-linejoin: round; stroke-width: 10.0309; fill: rgb(82, 29, 102);" rx="11.81" ry="11.81" transform="matrix(0.984808, -0.173648, 0.173648, 0.984808, -38.341314, 120.983141)"/>
    <g transform="matrix(0.670762, -0.118273, 0.118273, 0.670762, -50.603107, 164.500122)">
      <rect x="350.014" y="242.17" width="204.051" height="256.709" style="stroke: rgb(255, 255, 255); stroke-linejoin: round; stroke-width: 14.7273; fill: rgb(82, 29, 102);" transform="matrix(0.984808, 0.173649, -0.173649, 0.984808, -16.142946, -230.552555)" rx="11.81" ry="11.81"/>
      <g id="g3556" transform="matrix(0.369344, 0.065126, -0.057765, 0.327592, 282.673401, 91.402817)" style="fill: none; stroke: rgb(255, 255, 255); stroke-width: 17.4769; stroke-miterlimit: 4; stroke-dasharray: none; stroke-opacity: 1;">
        <g style="fill:none;fill-opacity:1;stroke:#ffffff;stroke-width:17.47688484;stroke-miterlimit:4;stroke-dasharray:none;stroke-opacity:1" transform="translate(10.71428,76.428572)" id="g3558">
          <path style="fill-opacity: 1; stroke: rgb(255, 255, 255); stroke-miterlimit: 4; stroke-dasharray: none; stroke-linejoin: round; stroke-width: 41.6209; fill: rgb(82, 29, 102);" d="m 265.04723,437.58841 c -4.3389,0.12807 -4.60002,0.12611 -13.35714,-0.31423 -24.21316,-1.21752 -44.96726,-7.32061 -68.98903,-25.29839 -15.9744,-11.95516 -26.93145,-24.82379 -35.00633,-41.11358 -7.44755,-15.02425 -11.0206,-26.37852 -14.3183,-45.5 -1.88738,-10.94379 -2.09333,-15.05218 -1.65427,-33 0.61859,-25.28708 2.62979,-36.9523 10.78163,-62.53486 13.11971,-41.17303 39.4419,-95.37415 65.54436,-134.965144 11.97995,-18.170626 25.98718,-33.10868 39.21408,-41.81996 6.78581,-4.469157 19.83397,-10.68004 22.43721,-10.68004 1.12557,0 1.58619,2.518439 2.13278,11.660931 1.15825,19.373302 6.46537,50.403123 11.08961,64.839073 1.23327,3.85 2.56304,8.35 2.95506,10 1.02328,4.30705 7.96209,17.75989 13.66837,26.5 4.79097,7.33815 12.24754,16.87276 24.48243,31.30534 25.28319,29.82465 45.10254,58.91035 55.8939,82.02654 8.6302,18.48677 10.53392,29.5447 8.63685,50.16812 -2.82145,30.67258 -11.84758,54.46651 -28.65038,75.52572 -13.84485,17.35197 -35.84342,31.63405 -58.97948,38.29113 -19.13128,5.50475 -31.19374,4.77098 -35.88135,4.90935 z" id="path3560"/>
        </g>
      </g>
    </g>
  </g>
</svg>
